<svg version="1.1" xmlns="http://www.w3.org/2000/svg" xmlns:xlink="http://www.w3.org/1999/xlink" x="0px" y="0px" viewBox="0 0 48 48" enable-background="new 0 0 48 48" xml:space="preserve">
    <circle fill="#3cc642" cx="24" cy="24" r="19"></circle>
    <g>
        <polygon fill="#C8E6C9" points="28,23.999 34,29 34,19 	"></polygon>
        <path fill="#C8E6C9" d="M30.586,25.414C30.947,25.776,31.447,26,32,26h8v-4h-8c-1.105,0-2,0.896-2,2C30,24.552,30.224,25.052,30.586,25.414z"></path>
        <polygon fill="#C8E6C9" points="20,24 14,19 14,29 	"></polygon>
        <path fill="#C8E6C9" d="M17.415,22.586C17.053,22.223,16.553,22,16,22H8v4h8c1.105,0,2-0.896,2-2C18,23.447,17.776,22.947,17.415,22.586z"></path>
    </g>
</svg>